<svg width="128" height="128" viewBox="0 0 128 128" fill="none" xmlns="http://www.w3.org/2000/svg">
<path d="M40.7168 67.1211H19.8457V60.4688H40.7168V67.1211ZM43.6621 52.1914H17.2051V82H10.6035V48.916C10.6035 48.459 10.6882 48.0273 10.8574 47.6211C11.0267 47.2148 11.2552 46.8594 11.543 46.5547C11.8477 46.25 12.2031 46.013 12.6094 45.8438C13.0156 45.6745 13.4557 45.5898 13.9297 45.5898H43.6621V52.1914ZM81.9004 52.1914H67.3516V82H60.75V52.1914H46.1758V45.5898H81.9004V52.1914ZM120.215 82H90.1016C89.6276 82 89.1875 81.9154 88.7812 81.7461C88.375 81.5768 88.0195 81.3483 87.7148 81.0605C87.4271 80.7559 87.1986 80.4004 87.0293 79.9941C86.86 79.5879 86.7754 79.1478 86.7754 78.6738V45.5898H93.377V75.3984H120.215V82Z" fill="black"/>
</svg>
